<?xml version="1.0" encoding="UTF-8"?>
<svg version="1.1" xmlns="http://www.w3.org/2000/svg" width="64" height="64">
<path d="M0 0 C1.07121094 -0.00945648 2.14242188 -0.01891296 3.24609375 -0.02865601 C4.98052734 -0.01954697 4.98052734 -0.01954697 6.75 -0.01025391 C7.93722656 -0.01312408 9.12445312 -0.01599426 10.34765625 -0.01895142 C12.85937985 -0.02099417 15.37111928 -0.01544963 17.8828125 -0.00292969 C21.73473572 0.01311999 25.58560955 -0.00277228 29.4375 -0.02197266 C31.87500232 -0.01999026 34.31250399 -0.01614667 36.75 -0.01025391 C37.90628906 -0.0163266 39.06257813 -0.02239929 40.25390625 -0.02865601 C41.32511719 -0.01919952 42.39632812 -0.00974304 43.5 0 C44.91539063 0.00358017 44.91539063 0.00358017 46.359375 0.00723267 C48.75 0.38818359 48.75 0.38818359 50.55386353 1.67611694 C52.66404568 4.69648508 52.17522337 8.33165913 52.1484375 11.88818359 C52.15130768 12.72027344 52.15417786 13.55236328 52.15713501 14.40966797 C52.15917562 16.16813844 52.15364593 17.9266316 52.14111328 19.68505859 C52.12505902 22.37828273 52.14096145 25.07000619 52.16015625 27.76318359 C52.15817382 29.47152024 52.15433014 31.17985596 52.1484375 32.88818359 C52.15754654 34.09764648 52.15754654 34.09764648 52.1668396 35.33154297 C52.09681465 40.89177719 52.09681465 40.89177719 50.55386353 43.10025024 C48.11085014 44.84452766 46.48944711 44.76880551 43.5 44.77636719 C42.42878906 44.78582367 41.35757813 44.79528015 40.25390625 44.80502319 C38.51947266 44.79591415 38.51947266 44.79591415 36.75 44.78662109 C35.56277344 44.78949127 34.37554687 44.79236145 33.15234375 44.7953186 C30.64062015 44.79736136 28.12888072 44.79181682 25.6171875 44.77929688 C21.76526428 44.76324719 17.91439045 44.77913947 14.0625 44.79833984 C11.62499768 44.79635745 9.18749601 44.79251386 6.75 44.78662109 C5.59371094 44.79269379 4.43742188 44.79876648 3.24609375 44.80502319 C2.17488281 44.79556671 1.10367187 44.78611023 0 44.77636719 C-0.94359375 44.77398041 -1.8871875 44.77159363 -2.859375 44.76913452 C-5.25 44.38818359 -5.25 44.38818359 -7.05386353 43.10025024 C-9.16404568 40.07988211 -8.67522337 36.44470805 -8.6484375 32.88818359 C-8.65130768 32.05609375 -8.65417786 31.22400391 -8.65713501 30.36669922 C-8.65917562 28.60822875 -8.65364593 26.84973558 -8.64111328 25.09130859 C-8.62505902 22.39808446 -8.64096145 19.706361 -8.66015625 17.01318359 C-8.65817382 15.30484694 -8.65433014 13.59651123 -8.6484375 11.88818359 C-8.65451019 11.081875 -8.66058289 10.27556641 -8.6668396 9.44482422 C-8.59681465 3.88459 -8.59681465 3.88459 -7.05386353 1.67611694 C-4.61085014 -0.06816047 -2.98944711 0.00756168 0 0 Z M-5.25 5.38818359 C-3.71950353 9.40913289 -1.24808268 11.15419923 2.1875 13.63818359 C2.98232788 14.21427368 2.98232788 14.21427368 3.79321289 14.80200195 C4.89539504 15.60077717 5.9995071 16.39689573 7.10546875 17.19042969 C8.69580566 18.34871248 10.25491407 19.54950121 11.8125 20.75146484 C12.76125 21.47720703 13.71 22.20294922 14.6875 22.95068359 C15.54214844 23.61197266 16.39679687 24.27326172 17.27734375 24.95458984 C20.24838924 26.67713912 21.38029644 27.10705369 24.75 26.38818359 C27.36629867 24.76588533 29.66210873 22.82173989 32 20.82568359 C33.32906365 19.72498419 34.65848987 18.62472244 35.98828125 17.52490234 C36.62975098 16.98784668 37.2712207 16.45079102 37.93212891 15.89746094 C40.30950468 13.92365795 42.74064731 12.02486651 45.1875 10.13818359 C45.88746094 9.59677734 46.58742187 9.05537109 47.30859375 8.49755859 C48.02208984 7.94841797 48.02208984 7.94841797 48.75 7.38818359 C48.255 5.90318359 48.255 5.90318359 47.75 4.38818359 C45.35091023 3.18863871 43.84295193 3.25508645 41.16430664 3.24291992 C40.21314468 3.23654007 39.26198273 3.23016022 38.28199768 3.22358704 C36.73668617 3.2219178 36.73668617 3.2219178 35.16015625 3.22021484 C34.10469101 3.21688644 33.04922577 3.21355804 31.96177673 3.21012878 C29.72655677 3.2050596 27.49132922 3.20272046 25.25610352 3.20288086 C21.8301145 3.20069483 18.4044476 3.18254012 14.97851562 3.16357422 C12.80989694 3.16064026 10.64127672 3.15865548 8.47265625 3.15771484 C7.44447281 3.15052933 6.41628937 3.14334381 5.35694885 3.13594055 C4.40263474 3.13901718 3.44832062 3.14209381 2.46508789 3.14526367 C1.20505699 3.14312614 1.20505699 3.14312614 -0.08042908 3.14094543 C-2.54424832 3.2543479 -2.54424832 3.2543479 -5.25 5.38818359 Z M-5.25 12.38818359 C-5.25 19.97818359 -5.25 27.56818359 -5.25 35.38818359 C-2.94 33.40818359 -0.63 31.42818359 1.75 29.38818359 C4.08333333 27.38818359 6.41666667 25.38818359 8.75 23.38818359 C4.79999819 19.19130667 0.52103566 15.63204195 -4.25 12.38818359 C-4.58 12.38818359 -4.91 12.38818359 -5.25 12.38818359 Z M41.6875 16.88818359 C41.11966797 17.31744141 40.55183594 17.74669922 39.96679688 18.18896484 C38.55958544 19.2532424 37.15458624 20.32044383 35.75 21.38818359 C37.33620127 25.26757869 39.84920987 27.72179446 42.8125 30.63818359 C43.71097656 31.53021484 44.60945313 32.42224609 45.53515625 33.34130859 C47.36976269 35.50130199 47.36976269 35.50130199 48.75 35.38818359 C48.75 27.79818359 48.75 20.20818359 48.75 12.38818359 C46.3393798 12.38818359 43.62079311 15.41667136 41.6875 16.88818359 Z M26.75 28.38818359 C23.88391871 29.82122424 21.93699217 29.69462515 18.75 29.38818359 C15.375 27.38818359 15.375 27.38818359 12.75 25.38818359 C9.92131143 26.68421771 7.7798979 28.08007957 5.515625 30.20849609 C4.94199219 30.74345703 4.36835938 31.27841797 3.77734375 31.82958984 C3.19082031 32.38517578 2.60429687 32.94076172 2 33.51318359 C1.09701172 34.35816406 1.09701172 34.35816406 0.17578125 35.22021484 C-1.30334151 36.60542505 -2.77719641 37.9962565 -4.25 39.38818359 C-1.77434965 41.86383395 -1.05694267 41.64053321 2.3515625 41.64697266 C3.30595215 41.65327698 4.2603418 41.6595813 5.24365234 41.66607666 C6.27699707 41.6620282 7.3103418 41.65797974 8.375 41.65380859 C9.96175537 41.65667877 9.96175537 41.65667877 11.58056641 41.65960693 C13.81998939 41.66096962 16.05942026 41.65726742 18.29882812 41.64892578 C21.73585677 41.63822762 25.1723627 41.64881847 28.609375 41.66162109 C30.78125116 41.66029951 32.95312699 41.65773715 35.125 41.65380859 C36.15834473 41.65785706 37.19168945 41.66190552 38.25634766 41.66607666 C39.2107373 41.65977234 40.16512695 41.65346802 41.1484375 41.64697266 C42.41179932 41.64458588 42.41179932 41.64458588 43.70068359 41.64215088 C45.97446396 41.57356876 45.97446396 41.57356876 47.75 39.38818359 C45.2748518 36.88417716 42.79423106 34.38566453 40.3125 31.88818359 C39.60544922 31.17275391 38.89839844 30.45732422 38.16992188 29.72021484 C37.49638672 29.04345703 36.82285156 28.36669922 36.12890625 27.66943359 C35.5057251 27.04101562 34.88254395 26.41259766 34.24047852 25.76513672 C31.18015424 22.9379084 29.51770897 26.1605154 26.75 28.38818359 Z " fill="#000000" transform="translate(10.25,9.61181640625)"/>
</svg>
