<?xml version="1.0" encoding="UTF-8"?>
<svg id="Layer_1" data-name="Layer 1" xmlns="http://www.w3.org/2000/svg" viewBox="0 0 960 960">
  <defs>
    <style>
      .cls-1 {
        fill: #ff6100;
      }

      .cls-1, .cls-2, .cls-3, .cls-4, .cls-5 {
        stroke-width: 0px;
      }

      .cls-2 {
        fill: #ffb629;
      }

      .cls-3 {
        fill: #09f;
      }

      .cls-4, .cls-5 {
        fill: #0a1551;
      }

      .cls-5 {
        fill-rule: evenodd;
      }
    </style>
  </defs>
  <path class="cls-4" d="M595.83,437.38l1.44.41v-20.07l-.66-.3c-1.01-.46-2.65-.88-4.53-1.18-1.91-.31-4.16-.51-6.46-.51-8.93,0-18.98,2.96-24.19,8.29-5.2,5.33-8.07,12.92-8.07,22v4.24h-13.06v23.04h13.06v70.03h26.22v-70.03h17.68v-23.04h-17.68v-3.92c0-4.08,1.42-6.43,3.25-7.8,1.88-1.41,4.35-1.9,6.61-1.9,3.39,0,5.36.46,6.38.75Z"/>
  <path class="cls-4" d="M310.4,500.69h-25.35l.02,1.01c.2,12.77,4.69,23.29,12.2,30.66,7.69,7.54,18.66,11.89,31.73,11.89,26.18,0,44.51-20.04,44.51-44.01v-74.86h-27.41v74.09c0,5.35-1.56,10.07-4.56,13.47-3.02,3.42-7.39,5.39-12.73,5.39-4.38,0-8.58-1.29-11.83-4.07-3.26-2.79-5.44-6.98-5.94-12.53-.03-.3-.16-.57-.35-.76l-.29-.28Z"/>
  <path class="cls-5" d="M645.31,452.02c-26.06,0-45.79,19.17-45.79,45.79s19.73,45.79,45.79,45.79,45.79-19.35,45.79-45.79-19.73-45.79-45.79-45.79ZM645.31,519.75c-5.13,0-10.02-1.87-13.62-5.49-3.59-3.61-6.02-9.07-6.02-16.45s2.42-12.93,6.01-16.51c3.6-3.6,8.48-5.43,13.62-5.43s10.03,1.83,13.62,5.43c3.58,3.58,6.01,9.04,6.01,16.51s-2.43,12.93-6.01,16.51c-3.6,3.6-8.48,5.43-13.62,5.43Z"/>
  <path class="cls-5" d="M428.62,452.66c-26.06,0-45.79,19.17-45.79,45.79s19.73,45.79,45.79,45.79,45.79-19.34,45.79-45.79-19.74-45.79-45.79-45.79ZM428.62,520.39c-5.13,0-10.02-1.87-13.62-5.49-3.59-3.61-6.02-9.07-6.02-16.45s2.43-12.93,6.01-16.51c3.6-3.6,8.48-5.43,13.62-5.43s10.03,1.83,13.62,5.43c3.59,3.58,6.01,9.04,6.01,16.51s-2.43,12.93-6.01,16.51c-3.6,3.6-8.48,5.43-13.62,5.43Z"/>
  <path class="cls-4" d="M788.32,543.32h-26v-88.46h24.98v7.11c5.75-6.09,14.89-9.22,22.78-9.22,10.83,0,19.99,4.31,25,12.48,3.1-4.13,6.65-7.12,10.66-9.13,4.71-2.37,9.96-3.34,15.68-3.34,8.06,0,16.07,2.45,22.07,7.96,6.04,5.54,9.88,14.01,9.88,25.68v56.93h-25.32v-52.32c0-4.28-1.05-7.81-3.11-10.24-2.02-2.39-5.2-3.95-9.99-3.95-4.37,0-7.77,1.68-10.1,4.32-2.35,2.66-3.68,6.38-3.68,10.56v51.63h-25.82v-52.32c0-4.26-1.08-7.8-3.17-10.24-2.05-2.4-5.24-3.95-9.93-3.95s-7.92,1.65-10.26,4.26c-2.35,2.63-3.69,6.35-3.69,10.61v51.63Z"/>
  <path class="cls-4" d="M752.55,454.94v26.5l-2.03-.41c-2.42-.49-4.51-.65-6.45-.65-5.51,0-10.41,1.35-13.93,4.63-3.49,3.26-5.9,8.68-5.9,17.42v40.9h-25.93v-88.46h25.25v8.54c6.25-7.51,15.95-8.97,22.03-8.97,1.95,0,3.72.18,5.39.35l1.56.16Z"/>
  <path class="cls-4" d="M532.29,522.21l-1.35.41c-.96.29-2.81.76-6,.76-2.12,0-4.44-.5-6.21-1.91-1.71-1.37-3.06-3.73-3.06-7.83v-40.34h16.62v-22.93h-16.62s0-24.88,0-24.88h-24.59v24.88h-12.28v22.93h12.28v40.66c0,9.12,2.69,16.74,7.58,22.08,4.89,5.35,14.28,8.32,22.68,8.32,2.16,0,4.27-.21,6.06-.51,1.77-.3,3.3-.72,4.26-1.19l.62-.3v-20.15Z"/>
  <path class="cls-4" d="M104.34,546.88c2.8,2.72.82,7.37-3.16,7.37h-24.9c-4.91,0-8.91-3.88-8.91-8.64v-24.14c0-3.86,4.8-5.78,7.6-3.06l29.37,28.47Z"/>
  <path class="cls-2" d="M143.26,548.76c-7.37-7.32-7.37-19.2,0-26.52l26.6-26.43c7.37-7.32,19.32-7.32,26.69,0,7.37,7.32,7.37,19.2,0,26.52l-26.6,26.43c-7.37,7.32-19.32,7.32-26.69,0Z"/>
  <path class="cls-3" d="M72.98,482.35c-7.37-7.32-7.37-19.2,0-26.52l44.77-44.51c7.37-7.32,19.32-7.32,26.69,0,7.37,7.32,7.37,19.2,0,26.52l-44.77,44.51c-7.37,7.32-19.32,7.32-26.69,0Z"/>
  <path class="cls-1" d="M109.58,514.07c-7.37-7.32-7.37-19.2,0-26.52l60.49-60.1c7.37-7.32,19.32-7.32,26.69,0,7.37,7.32,7.37,19.2,0,26.52l-60.49,60.1c-7.37,7.32-19.32,7.32-26.69,0Z"/>
</svg>